<?xml version="1.0" encoding="utf-8"?>
<!-- Generator: Adobe Illustrator 25.0.0, SVG Export Plug-In . SVG Version: 6.00 Build 0)  -->
<svg version="1.1" id="Layer_1" xmlns="http://www.w3.org/2000/svg" xmlns:xlink="http://www.w3.org/1999/xlink" x="0px" y="0px"
	 viewBox="0 0 600 600" style="enable-background:new 0 0 600 600;" xml:space="preserve">
<style type="text/css">
	.st0{fill:#CC3700;}
	.st1{fill:#E97E69;}
</style>
<path class="st0" d="M500.6,378.5h-93.5c-11.8,0-21.3,9.9-21.3,22.1V507c0,27-21.1,48.8-47.1,48.8h-77.4c-26,0-47.1-21.9-47.1-48.8
	V400.6c0-12.2-9.6-22.1-21.3-22.1H99.4c-38.2,0-59-46.4-34.4-76.7L265.6,54.9c18-22.1,50.8-22.1,68.7,0L535,301.8
	C559.6,332.1,538.9,378.5,500.6,378.5z"/>
<path class="st1" d="M143.3,288.2l15.4,12.8c8.9,7.3,22,6.1,29.3-2.8l102.9-124.4c7.3-8.9,6.1-22-2.8-29.3l-15.4-12.8
	c-8.9-7.3-22-6.1-29.3,2.8L140.5,258.9C133.2,267.8,134.5,280.9,143.3,288.2z"/>
<path class="st1" d="M-181,134.5"/>
</svg>
